# xmcd CD database file
#
# Track frame offsets:
#	150
#	11125
#	25419
#	36035
#	51802
#	67275
#	76872
#	90100
#	102335
#	117045
#	125582
#	139012
#	154630
#	164940
#	180500
#	194667
#	206393
#	221923
#	233728
#	243421
#	254539
#	261480
#	270311
#	279946
#	295835
#	304870
#	316689
#	326133
#	336042
#	347504
#
# Disc length: 4834 seconds
#
# Revision: 0
# Processed by: cddbd v1.5.2PL0 Copyright (c) Steve Scherf et al.
# Submitted via: CDex 1.51
#
DISCID=ba12e01e
DTITLE=Buddy Davis - By Him All Things Were Created (1-14) The Hands That Created The World (15-30)
DYEAR=1900
DGENRE=Country
TTITLE0=01 - By Him All Things Were Created
TTITLE1=02 - Fan The Flame
TTITLE2=03 - We're Reclaiming Holy Ground
TTITLE3=04 - Godly Men
TTITLE4=05 - When Dragon's Hearts Were Good
TTITLE5=06 - Keep On Keepin' On
TTITLE6=07 - How Beautiful Are The Feet
TTITLE7=08 - No Matter What We Know
TTITLE8=09 - Do You Hear The Savior Cry
TTITLE9=10 - You've Gotta Know The Bible
TTITLE10=11 - A Rebel's Saved
TTITLE11=12 - We're Without Excuse
TTITLE12=13 - One Was Left And One Was Right
TTITLE13=14 - Warrior Down
TTITLE14=01 - The Hands That Created The World
TTITLE15=02 - We Three Kings
TTITLE16=03 - The First Noel
TTITLE17=04 - O Little Town Of Bethlehem
TTITLE18=05 - Go Tell It On The Mountain
TTITLE19=06 - O Come All Ye Faithful
TTITLE20=07 - Joy To The World
TTITLE21=08 - What Child Is This
TTITLE22=09 - They Heard The Good News First
TTITLE23=10 - Little Drummer Boy
TTITLE24=11 - O Holy Night
TTITLE25=12 - O Beautiful Star Of Bethlehem
TTITLE26=13 - Away In A Manger
TTITLE27=14 - Hark! The Herald Angels Sing
TTITLE28=15 - Angels We Have Heard On High
TTITLE29=16 - Silent Night
EXTD=
EXTT0=
EXTT1=
EXTT2=
EXTT3=
EXTT4=
EXTT5=
EXTT6=
EXTT7=
EXTT8=
EXTT9=
EXTT10=
EXTT11=
EXTT12=
EXTT13=
EXTT14=
EXTT15=
EXTT16=
EXTT17=
EXTT18=
EXTT19=
EXTT20=
EXTT21=
EXTT22=
EXTT23=
EXTT24=
EXTT25=
EXTT26=
EXTT27=
EXTT28=
EXTT29=
PLAYORDER=
